<?xml version="1.0" standalone="no"?>
<!DOCTYPE svg PUBLIC "-//W3C//DTD SVG 20010904//EN"
 "http://www.w3.org/TR/2001/REC-SVG-20010904/DTD/svg10.dtd">
<svg version="1.0" xmlns="http://www.w3.org/2000/svg"
 width="1280.000000pt" height="1280.000000pt" viewBox="0 0 1280.000000 1280.000000"
 preserveAspectRatio="xMidYMid meet">
<g transform="translate(0.000000,1280.000000) scale(0.100000,-0.100000)"
fill="#ff9800" stroke="none">
<path d="M6095 12794 c-901 -48 -1763 -273 -2547 -665 -1884 -941 -3187 -2744
-3482 -4819 -49 -341 -60 -508 -60 -910 0 -502 31 -821 124 -1280 510 -2519
2511 -4508 5030 -4999 439 -86 755 -115 1240 -115 403 0 571 11 910 60 1374
197 2629 826 3614 1810 1072 1072 1705 2428 1853 3969 24 252 24 858 0 1110
-148 1541 -781 2897 -1853 3969 -1068 1068 -2441 1710 -3959 1851 -162 15
-716 27 -870 19z m-762 -5796 c37 -76 128 -159 204 -188 47 -18 74 -21 143
-18 164 6 46 -100 1550 1391 l1335 1324 3 -1574 c1 -865 1 -2281 0 -3146 l-3
-1574 -1340 1334 c-1446 1440 -1374 1373 -1508 1396 -155 26 -319 -66 -390
-220 l-22 -48 -3 -1232 c-1 -678 -5 -1233 -8 -1233 -11 0 -3164 3154 -3162
3162 2 4 714 712 1583 1573 l1580 1565 5 -1228 5 -1227 28 -57z"/>
</g>
</svg>
